<?xml version="1.0" encoding="utf-8"?>
<?xml-stylesheet type="text/xsl" href="rss1.xsl"?>
<rss version="2.0" xmlns:atom="http://www.w3.org/2005/Atom" xmlns:content="http://purl.org/rss/1.0/modules/content/" xmlns:dc="http://purl.org/dc/elements/1.1/" xmlns:media="http://search.yahoo.com/mrss/">
<channel>
 <title>Getty</title>
 <link>http://www.gettyimg.com/</link>
 <atom:link href="http://www.gettyimg.com/" rel="self" type="application/rss+xml" />

 
                <item>
                <title><![CDATA[【HD Live Performances】UHDTV 4K - Demi Lovato - Live @ The Town 2023 UHDTV H265 2160p DD2.0-ilya2129]]></title>
                <link><![CDATA[https://sharemania.us/threads/demi-lovato-live-the-town-2023-uhdtv-h265-2160p-dd2-0-ilya2129.227714/]]></link>
                <description><![CDATA[<article>
<blockquote class="messageText SelectQuoteContainer ugc baseHtml">
<div style="text-align: center"><img src="https://i122.fastpic.org/big/2023/0903/f2/ce9f496df0f384cc9c966a9eba2bd3f2.png" class="bbCodeImage LbImage" alt="[​IMG]" data-url="https://i122.fastpic.org/big/2023/0903/f2/ce9f496df0f384cc9c966a9eba2bd3f2.png" style=""><br>
<br>
<a href="https://postimg.cc/Cd8v9HM4" target="_blank" class="externalLink" rel="nofollow"><img src="https://i.postimg.cc/Cd8v9HM4/vlcsnap-2023-09-04-09h48m05s459.png" class="bbCodeImage LbImage" alt="[​IMG]" data-url="https://i.postimg.cc/Cd8v9HM4/vlcsnap-2023-09-04-09h48m05s459.png"></a> <a href="https://postimg.cc/GHQj1XWv" target="_blank" class="externalLink" rel="nofollow"><img src="https://i.postimg.cc/GHQj1XWv/vlcsnap-2023-09-04-09h48m07s647.png" class="bbCodeImage LbImage" alt="[​IMG]" data-url="https://i.postimg.cc/GHQj1XWv/vlcsnap-2023-09-04-09h48m07s647.png"></a> <a href="https://postimg.cc/zHwFv7VZ" target="_blank" class="externalLink" rel="nofollow"><img src="https://i.postimg.cc/zHwFv7VZ/vlcsnap-2023-09-04-09h48m10s221.png" class="bbCodeImage LbImage" alt="[​IMG]" data-url="https://i.postimg.cc/zHwFv7VZ/vlcsnap-2023-09-04-09h48m10s221.png"></a> <a href="https://postimg.cc/hzT9Zs8z" target="_blank" class="externalLink" rel="nofollow"><img src="https://i.postimg.cc/hzT9Zs8z/vlcsnap-2023-09-04-09h48m12s354.png" class="bbCodeImage LbImage" alt="[​IMG]" data-url="https://i.postimg.cc/hzT9Zs8z/vlcsnap-2023-09-04-09h48m12s354.png"></a> <a href="https://postimg.cc/RJxTvyCL" target="_blank" class="externalLink" rel="nofollow"><img src="https://i.postimg.cc/RJxTvyCL/vlcsnap-2023-09-04-09h48m14s487.png" class="bbCodeImage LbImage" alt="[​IMG]" data-url="https://i.postimg.cc/RJxTvyCL/vlcsnap-2023-09-04-09h48m14s487.png"></a> <a href="https://postimg.cc/GBZFjVDn" target="_blank" class="externalLink" rel="nofollow"><img src="https://i.postimg.cc/GBZFjVDn/vlcsnap-2023-09-04-09h48m17s802.png" class="bbCodeImage LbImage" alt="[​IMG]" data-url="https://i.postimg.cc/GBZFjVDn/vlcsnap-2023-09-04-09h48m17s802.png"></a> <br>
<br>
<i><br>
Confident (Rock version)<br>
HOLY FVCK<br>
FREAK<br>
EAT ME<br>
SWINE<br>
SUBSTANCE<br>
La La Land (Rock version)<br>
Don't Forget<br>
Give Your Heart a Break (Rock version)<br>
Tell Me You Love Me(Rock version)<br>
Neon Lights (Rock version – Audience request)<br>
Sorry Not Sorry (Rock version)<br>
Penhasco2 (Luísa Sonza cover) (with Luísa Sonza) (Live debut)<br>
Skyscraper<br>
29<br>
SKIN OF MY TEETH<br>
Heart Attack (Rock version – Audience acapella intro)<br>
Cool for the Summer (Rock version - Extended outro)<br>
</i><br>
​</div><br>
<div class="bbCodeBlock bbCodeCode">
<div class="type">Code:</div>
<pre>General
ID                                       : 17 (0x11)
Complete name                            : D:\Demi Lovato - Live @ The Town 2023 UHDTV H265 2160p DD2.0-ilya2129.ts
Format                                   : MPEG-TS
File size                                : 7.99 GiB
Duration                                 : 1 h 8 min
Overall bit rate mode                    : Variable
Overall bit rate                         : 16.6 Mb/s
Frame rate                               : 59.940 FPS

Video
ID                                       : 4368 (0x1110)
Menu ID                                  : 442 (0x1BA)
Format                                   : HEVC
Format/Info                              : High Efficiency Video Coding
Format profile                           : Main 10@L5.1@Main
Codec ID                                 : 36
Duration                                 : 1 h 8 min
Bit rate                                 : 15.6 Mb/s
Maximum bit rate                         : 16.4 Mb/s
Width                                    : 3 840 pixels
Height                                   : 2 160 pixels
Display aspect ratio                     : 16:9
Frame rate                               : 59.940 (60000/1001) FPS
Color space                              : YUV
Chroma subsampling                       : 4:2:0 (Type 0)
Bit depth                                : 10 bits
Bits/(Pixel*Frame)                       : 0.031
Stream size                              : 7.51 GiB (94%)
Color range                              : Limited
Color primaries                          : BT.709
Transfer characteristics                 : BT.709
Matrix coefficients                      : BT.709

Audio
ID                                       : 4369 (0x1111)
Menu ID                                  : 442 (0x1BA)
Format                                   : AC-3
Format/Info                              : Audio Coding 3
Commercial name                          : Dolby Digital
Codec ID                                 : 6
Duration                                 : 1 h 8 min
Bit rate mode                            : Constant
Bit rate                                 : 192 kb/s
Maximum bit rate                         : 203 kb/s
Channel(s)                               : 2 channels
Channel layout                           : L R
Sampling rate                            : 48.0 kHz
Frame rate                               : 31.250 FPS (1536 SPF)
Compression mode                         : Lossy
Delay relative to video                  : 20 ms
Stream size                              : 94.6 MiB (1%)
Language                                 : Portuguese
Service kind                             : Complete Main
</pre>
</div>
<div class="bbCodeBlock bbCodeVfcHH HiddenContent">
<div class="attribution type">Hidden Content:</div>
<blockquote>You must reply before you can see the hidden data contained here.</blockquote>
</div>
<div class="messageTextEndMarker">&nbsp;</div>
</blockquote>
</article>]]></description>
                <author><![CDATA[ilya2129]]></author>
                </item>

                
                <item>
                <title><![CDATA[【Singles (lossless)】ALAC - Janet Jackson - Come On Get Up (The Remixes)]]></title>
                <link><![CDATA[https://sharemania.us/threads/janet-jackson-come-on-get-up-the-remixes.227716/]]></link>
                <description><![CDATA[<article>
<blockquote class="messageText SelectQuoteContainer ugc baseHtml">
Thanks!<img src="styles/default/xenforo/smilies/red_heart-48.png" class="mceSmilie" alt=":love:" title="hearts    :love:">
<div class="messageTextEndMarker">&nbsp;</div>
</blockquote>
</article>]]></description>
                <author><![CDATA[HeBop2012]]></author>
                </item>

                
                <item>
                <title><![CDATA[【HD Live Performances】UHDTV 4K - Post Malone - Live @ The Town 2023 UHDTV H265 2160p DD2.0-ilya2129]]></title>
                <link><![CDATA[https://sharemania.us/threads/post-malone-live-the-town-2023-uhdtv-h265-2160p-dd2-0-ilya2129.227715/]]></link>
                <description><![CDATA[<article>
<blockquote class="messageText SelectQuoteContainer ugc baseHtml">
<img src="https://i.imgur.com/hFTnqI7.jpg" class="bbCodeImage LbImage" alt="[​IMG]" data-url="https://i.imgur.com/hFTnqI7.jpg" style=""><br>
<div style="text-align: center">Come On Get Up (The Remixes)<br>
1. Come On Get Up (Radio Version)<br>
2. Come On Get Up (Milk &amp; Sugar Classic Mix)<br>
3. Come On Get Up (Milk &amp; Sugar Classic Mix)<br>
4. Come On Get Up (Milk &amp; Sugar Retro Radio Mix)<br>
5. Come On Get Up (Milk &amp; Sugar Retro Mix)<br>
6. Come On Get Up (Milk &amp; Sugar Tribal Dub)<br>
7. Come On Get Up (Mood II Swing Vox)<br>
8. Come On Get Up (Mood II Swing Pacifix Vox)<br>
<br>
<a href="https://www.mediafire.com/folder/hd1xz76egc4n2/07+All+for+You+Singles+[ALAC]+[16-Bit+44.1-kHz]" target="_blank" class="externalLink" rel="nofollow">DOWNLOAD</a>​</div><br>
<div style="text-align: center">P.S. My Janet Want List (Lossless only)<br>
Come On Get Up (John Ciafone Dub) 6:51<br>
I Want You (Dr. Octavo Funk'N'Stein Radio Mix) 4:18<br>
I Want You (Dr. Octavo Funk'N'Stein Extended Mix) 7:54<br>
R&amp;B Junkie / I Want You (Dr. Octavo Funk'N'Stein Medley Mix) 3:44<br>
R&amp;B Junkie (Russ' Underground Mix) 6:43<br>
Can't B Good (Main) 3:55<br>
Can't B Good (Instrumental) 3:55<br>
<br>
Thank you! XXX​</div>
<div class="messageTextEndMarker">&nbsp;</div>
</blockquote>
</article>]]></description>
                <author><![CDATA[ilya2129]]></author>
                </item>

                </channel></rss>